<?xml version="1.0" encoding="utf-8"?>
<!-- Generator: Adobe Illustrator 21.1.0, SVG Export Plug-In . SVG Version: 6.00 Build 0)  -->
<svg version="1.1" id="Layer_1" xmlns="http://www.w3.org/2000/svg" xmlns:xlink="http://www.w3.org/1999/xlink" x="0px" y="0px"
	 viewBox="0 0 448 448" style="enable-background:new 0 0 448 448;" xml:space="preserve">
<style type="text/css">
	.st0{fill:#C13030;}
</style>
<path id="Icon" class="st0" d="M224.9,1.2c-123.7,0-224,100.3-224,224s100.3,224,224,224s224-100.3,224-224S348.6,1.2,224.9,1.2
	L224.9,1.2z M224,97c33.9,0,65.8,13.2,89.8,37.2S351,190.1,351,224s-13.2,65.8-37.2,89.8S257.9,351,224,351s-65.8-13.2-89.8-37.2
	S97,257.9,97,224s13.2-65.8,37.2-89.8S190.1,97,224,97"/>
</svg>
