<?xml version="1.0" encoding="utf-8"?>
<!-- Generator: Adobe Illustrator 21.1.0, SVG Export Plug-In . SVG Version: 6.00 Build 0)  -->
<svg version="1.1" id="Layer_1" xmlns="http://www.w3.org/2000/svg" xmlns:xlink="http://www.w3.org/1999/xlink" x="0px" y="0px"
	 viewBox="0 0 420 420" style="enable-background:new 0 0 420 420;" xml:space="preserve">
<style type="text/css">
	.st0{fill:#EC7A08;}
</style>
<path id="Icon" class="st0" d="M210,40c0.9,0,1.8,0.3,2.4,1L379,207.6c1.3,1.3,1.3,3.5,0,4.8L212.4,379c-0.7,0.7-1.5,1-2.4,1
	s-1.8-0.3-2.4-1L41,212.4c-1.3-1.3-1.3-3.5,0-4.8L207.6,41C208.2,40.3,209.1,40,210,40 M210,0c-11.1,0-22.2,4.2-30.7,12.7
	L12.7,179.3c-17,17-17,44.5,0,61.4l166.6,166.6c8.5,8.5,19.6,12.7,30.7,12.7s22.2-4.2,30.7-12.7l166.6-166.6c17-17,17-44.5,0-61.4
	L240.7,12.7C232.2,4.2,221.1,0,210,0L210,0z"/>
</svg>
