<?xml version="1.0" encoding="utf-8"?>
<!-- Generator: Adobe Illustrator 20.1.0, SVG Export Plug-In . SVG Version: 6.00 Build 0)  -->
<svg version="1.1" id="Layer_1" xmlns="http://www.w3.org/2000/svg" xmlns:xlink="http://www.w3.org/1999/xlink" x="0px" y="0px"
	 viewBox="0 0 340 20" style="enable-background:new 0 0 340 20;" xml:space="preserve">
<style type="text/css">
	.st0{fill:#FFFFFF;}
</style>
<g>
	<g>
		<path class="st0" d="M133.9,15.2c-0.3,0.9-0.7,1.7-1.4,2.3c-0.6,0.6-1.4,1.1-2.3,1.5c-0.9,0.3-2,0.5-3.2,0.5c-1.2,0-2.2-0.1-3-0.4
			c-0.8-0.3-1.6-0.7-2.2-1.2c-0.6-0.5-1.1-1.2-1.5-1.9c-0.4-0.7-0.7-1.6-0.9-2.5l4.7-1.2c0.3,1,0.7,1.7,1.1,2.2
			c0.4,0.5,1,0.8,1.9,0.8c0.8,0,1.4-0.2,1.7-0.7c0.4-0.5,0.6-1.2,0.6-2V1.8h4.9v10.3C134.3,13.3,134.2,14.3,133.9,15.2z"/>
		<path class="st0" d="M151,17.8c-1.1,1-2.7,1.5-4.9,1.5h-8.4V1.8h8.4c2.2,0,3.7,0.4,4.7,1.2c1,0.8,1.4,1.9,1.4,3.4
			c0,0.9-0.2,1.7-0.6,2.2c-0.4,0.5-0.9,0.9-1.5,1.2c0.8,0.3,1.4,0.8,1.8,1.4c0.4,0.6,0.6,1.4,0.6,2.4
			C152.7,15.4,152.1,16.8,151,17.8z M147.2,6c-0.2-0.3-0.6-0.4-1.2-0.4h-3.6v2.8h3.6c0.6,0,1-0.1,1.2-0.4c0.2-0.3,0.3-0.6,0.3-1
			C147.5,6.6,147.4,6.3,147.2,6z M147.5,12.5c-0.3-0.3-0.7-0.4-1.3-0.4h-3.8v3.4h3.8c0.6,0,1-0.2,1.3-0.5c0.3-0.3,0.4-0.7,0.4-1.2
			C147.9,13.2,147.8,12.8,147.5,12.5z"/>
		<path class="st0" d="M170.2,14.4c-0.4,1.1-1,2.1-1.7,2.8c-0.7,0.8-1.6,1.3-2.6,1.7c-1,0.4-2.1,0.6-3.3,0.6c-1.2,0-2.3-0.2-3.2-0.6
			c-1-0.4-1.8-1-2.5-1.7c-0.7-0.8-1.3-1.7-1.7-2.8c-0.4-1.1-0.6-2.4-0.6-3.8c0-1.4,0.2-2.7,0.6-3.8c0.4-1.1,1-2.1,1.7-2.8
			c0.7-0.8,1.6-1.3,2.6-1.7c1-0.4,2.1-0.6,3.3-0.6c1.2,0,2.3,0.2,3.2,0.6c1,0.4,1.8,1,2.5,1.7c0.7,0.8,1.3,1.7,1.7,2.8
			c0.4,1.1,0.6,2.4,0.6,3.8C170.8,12,170.6,13.2,170.2,14.4z M165,7c-0.5-0.8-1.3-1.2-2.3-1.2c-1,0-1.7,0.4-2.2,1.2
			c-0.5,0.8-0.8,2-0.8,3.6c0,1.6,0.3,2.8,0.8,3.6c0.5,0.8,1.3,1.2,2.3,1.2c1,0,1.7-0.4,2.2-1.2c0.5-0.8,0.8-2,0.8-3.6
			C165.8,9,165.5,7.8,165,7z"/>
		<path class="st0" d="M186.5,16.4c-0.4,0.7-0.9,1.3-1.5,1.7c-0.6,0.4-1.4,0.8-2.3,1c-0.9,0.2-1.8,0.3-2.9,0.3c-1.4,0-2.8-0.2-4-0.6
			c-1.3-0.4-2.4-0.9-3.3-1.5l2.3-3.8c0.3,0.2,0.7,0.4,1.1,0.6c0.4,0.2,0.9,0.4,1.3,0.6c0.5,0.2,0.9,0.3,1.4,0.4
			c0.5,0.1,0.9,0.1,1.3,0.1c0.9,0,1.5-0.1,1.8-0.2c0.3-0.2,0.5-0.5,0.5-0.9c0-0.2,0-0.3-0.1-0.4c-0.1-0.1-0.2-0.3-0.5-0.4
			c-0.2-0.1-0.5-0.3-0.9-0.4c-0.4-0.1-0.9-0.3-1.4-0.4c-1-0.2-2-0.5-2.7-0.8c-0.8-0.3-1.4-0.6-1.9-1.1c-0.5-0.4-0.9-0.9-1.2-1.5
			c-0.3-0.6-0.4-1.3-0.4-2.2c0-0.8,0.2-1.6,0.5-2.2c0.3-0.7,0.8-1.3,1.4-1.7c0.6-0.5,1.3-0.9,2.2-1.1c0.8-0.3,1.8-0.4,2.8-0.4
			c1.5,0,2.8,0.2,3.9,0.5c1.1,0.3,2.1,0.8,3,1.5l-2.3,3.8c-0.8-0.5-1.6-0.9-2.3-1.2c-0.8-0.3-1.6-0.4-2.5-0.4
			c-0.7,0-1.2,0.1-1.4,0.3c-0.2,0.2-0.3,0.5-0.3,0.8c0,0.2,0,0.3,0.1,0.4c0.1,0.1,0.2,0.2,0.5,0.3c0.2,0.1,0.5,0.2,0.9,0.3
			c0.4,0.1,0.8,0.2,1.4,0.4c1.1,0.3,2,0.6,2.8,0.9c0.8,0.3,1.5,0.7,2,1.1c0.5,0.4,0.9,0.9,1.1,1.5c0.2,0.6,0.4,1.3,0.4,2.1
			C187.1,14.9,186.9,15.7,186.5,16.4z"/>
		<path class="st0" d="M203,16.4c-0.4,0.7-0.9,1.3-1.5,1.7c-0.6,0.4-1.4,0.8-2.3,1c-0.9,0.2-1.8,0.3-2.9,0.3c-1.4,0-2.8-0.2-4-0.6
			c-1.3-0.4-2.4-0.9-3.3-1.5l2.3-3.8c0.3,0.2,0.7,0.4,1.1,0.6c0.4,0.2,0.9,0.4,1.3,0.6c0.5,0.2,0.9,0.3,1.4,0.4
			c0.5,0.1,0.9,0.1,1.3,0.1c0.9,0,1.5-0.1,1.8-0.2c0.3-0.2,0.5-0.5,0.5-0.9c0-0.2,0-0.3-0.1-0.4c-0.1-0.1-0.2-0.3-0.5-0.4
			c-0.2-0.1-0.5-0.3-0.9-0.4c-0.4-0.1-0.9-0.3-1.4-0.4c-1-0.2-2-0.5-2.7-0.8c-0.8-0.3-1.4-0.6-1.9-1.1c-0.5-0.4-0.9-0.9-1.2-1.5
			c-0.3-0.6-0.4-1.3-0.4-2.2c0-0.8,0.2-1.6,0.5-2.2c0.3-0.7,0.8-1.3,1.4-1.7c0.6-0.5,1.3-0.9,2.2-1.1c0.8-0.3,1.8-0.4,2.8-0.4
			c1.5,0,2.8,0.2,3.9,0.5c1.1,0.3,2.1,0.8,3,1.5L201,7.4c-0.8-0.5-1.6-0.9-2.3-1.2c-0.8-0.3-1.6-0.4-2.5-0.4c-0.7,0-1.2,0.1-1.4,0.3
			c-0.2,0.2-0.4,0.5-0.4,0.8c0,0.2,0,0.3,0.1,0.4c0.1,0.1,0.2,0.2,0.5,0.3c0.2,0.1,0.5,0.2,0.9,0.3c0.4,0.1,0.8,0.2,1.4,0.4
			c1.1,0.3,2,0.6,2.8,0.9c0.8,0.3,1.4,0.7,2,1.1c0.5,0.4,0.9,0.9,1.1,1.5c0.2,0.6,0.4,1.3,0.4,2.1C203.6,14.9,203.4,15.7,203,16.4z"
			/>
	</g>
	<g>
		<g>
			<path class="st0" d="M9.7,19.2l-2.8-5.8H4.9v5.8H0.2V1.9h7.7c1,0,1.9,0.1,2.8,0.3c0.8,0.2,1.5,0.5,2.1,1c0.6,0.4,1,1,1.4,1.7
				c0.3,0.7,0.5,1.6,0.5,2.6c0,1.3-0.3,2.4-0.8,3.2c-0.6,0.8-1.3,1.4-2.3,1.9l3.5,6.6H9.7z M9.4,6.3C9.1,6,8.6,5.8,7.8,5.8H4.9v3.8
				h2.8c0.8,0,1.4-0.2,1.7-0.5c0.3-0.3,0.5-0.8,0.5-1.4C9.9,7.1,9.8,6.7,9.4,6.3z"/>
		</g>
		<g>
			<path class="st0" d="M17.9,19.2V1.9h13.2v4h-8.5v2.3h5.1v3.9h-5.1v3h8.7v4H17.9z"/>
		</g>
		<g>
			<path class="st0" d="M48.7,14.5c-0.4,1.1-1,2-1.8,2.7c-0.8,0.7-1.8,1.2-2.9,1.5c-1.2,0.3-2.5,0.5-4,0.5h-5.6V1.9h6
				c1.4,0,2.6,0.1,3.7,0.4c1.1,0.3,2,0.8,2.8,1.4c0.8,0.7,1.4,1.5,1.8,2.6c0.4,1.1,0.6,2.4,0.6,4.1C49.3,12.1,49.1,13.4,48.7,14.5z
				 M44.2,8.5c-0.1-0.6-0.4-1-0.7-1.4c-0.3-0.4-0.7-0.6-1.2-0.8C41.8,6.1,41.1,6,40.4,6h-1.2v9.1h1c0.7,0,1.4-0.1,1.9-0.2
				c0.5-0.2,1-0.4,1.3-0.8c0.3-0.4,0.6-0.8,0.7-1.4c0.1-0.6,0.2-1.3,0.2-2.2C44.4,9.7,44.3,9,44.2,8.5z"/>
		</g>
		<g>
			<path class="st0" d="M69.6,19.2v-6.8h-5.4v6.8h-4.9V1.9h4.9v6.3h5.4V1.9h4.9v17.3H69.6z"/>
		</g>
		<g>
			<path class="st0" d="M89.2,19.2l-0.9-3h-5.2l-0.9,3H77l6.3-17.3h4.8l6.3,17.3H89.2z M86.8,11.2c-0.1-0.6-0.3-1-0.4-1.5
				c-0.1-0.4-0.2-0.8-0.3-1.1C86,8.3,85.9,8,85.8,7.7c-0.1-0.3-0.1-0.6-0.2-0.9c-0.1,0.3-0.1,0.6-0.2,0.9c-0.1,0.3-0.1,0.6-0.2,0.9
				C85.2,9,85,9.4,84.9,9.8c-0.1,0.4-0.2,0.9-0.4,1.4l-0.3,1.1h2.9L86.8,11.2z"/>
		</g>
		<g>
			<path class="st0" d="M103.4,6.1v13.1h-4.8V6.1h-4.8V1.9h14.5v4.2H103.4z"/>
		</g>
	</g>
	<g>
		<path class="st0" d="M113.9,4.3c-0.1,0.2-0.2,0.4-0.4,0.5c-0.2,0.2-0.3,0.3-0.5,0.4c-0.2,0.1-0.4,0.1-0.7,0.1
			c-0.2,0-0.5,0-0.7-0.1c-0.2-0.1-0.4-0.2-0.6-0.4c-0.2-0.2-0.3-0.3-0.4-0.5c-0.1-0.2-0.1-0.4-0.1-0.7c0-0.2,0-0.5,0.1-0.7
			c0.1-0.2,0.2-0.4,0.4-0.5c0.2-0.2,0.3-0.3,0.6-0.4c0.2-0.1,0.4-0.1,0.7-0.1c0.2,0,0.5,0,0.7,0.1c0.2,0.1,0.4,0.2,0.5,0.4
			c0.2,0.2,0.3,0.3,0.4,0.5c0.1,0.2,0.1,0.4,0.1,0.7C114,3.9,114,4.1,113.9,4.3z M113.6,3c-0.1-0.2-0.2-0.3-0.3-0.5
			c-0.1-0.1-0.3-0.2-0.5-0.3c-0.2-0.1-0.4-0.1-0.6-0.1c-0.2,0-0.4,0-0.6,0.1c-0.2,0.1-0.3,0.2-0.5,0.3c-0.1,0.1-0.2,0.3-0.3,0.5
			c-0.1,0.2-0.1,0.4-0.1,0.6c0,0.2,0,0.4,0.1,0.6c0.1,0.2,0.2,0.3,0.3,0.5c0.1,0.1,0.3,0.2,0.5,0.3c0.2,0.1,0.4,0.1,0.6,0.1
			c0.2,0,0.4,0,0.6-0.1c0.2-0.1,0.3-0.2,0.5-0.3c0.1-0.1,0.2-0.3,0.3-0.5c0.1-0.2,0.1-0.4,0.1-0.6C113.7,3.4,113.7,3.2,113.6,3z
			 M112.9,3.6c-0.1,0.1-0.2,0.2-0.3,0.2l0.4,0.8h-0.4l-0.4-0.7h-0.4v0.7h-0.3V2.6h0.8c0.1,0,0.2,0,0.2,0c0.1,0,0.1,0.1,0.2,0.1
			c0.1,0,0.1,0.1,0.1,0.2c0,0.1,0,0.2,0,0.3C113.1,3.4,113,3.5,112.9,3.6z M112.7,3c-0.1,0-0.1-0.1-0.2-0.1h-0.5v0.5h0.5
			c0.1,0,0.2,0,0.2-0.1c0.1,0,0.1-0.1,0.1-0.2C112.7,3.1,112.7,3.1,112.7,3z"/>
	</g>
	<g>
		<path class="st0" d="M210.1,4.3c-0.1,0.2-0.2,0.4-0.4,0.5c-0.2,0.2-0.3,0.3-0.5,0.4c-0.2,0.1-0.4,0.1-0.7,0.1
			c-0.2,0-0.5,0-0.7-0.1c-0.2-0.1-0.4-0.2-0.6-0.4c-0.2-0.2-0.3-0.3-0.4-0.5c-0.1-0.2-0.1-0.4-0.1-0.7c0-0.2,0-0.5,0.1-0.7
			c0.1-0.2,0.2-0.4,0.4-0.5c0.2-0.2,0.3-0.3,0.6-0.4c0.2-0.1,0.4-0.1,0.7-0.1c0.2,0,0.5,0,0.7,0.1c0.2,0.1,0.4,0.2,0.5,0.4
			c0.2,0.2,0.3,0.3,0.4,0.5c0.1,0.2,0.1,0.4,0.1,0.7C210.3,3.9,210.2,4.1,210.1,4.3z M209.9,3c-0.1-0.2-0.2-0.3-0.3-0.5
			c-0.1-0.1-0.3-0.2-0.5-0.3c-0.2-0.1-0.4-0.1-0.6-0.1c-0.2,0-0.4,0-0.6,0.1c-0.2,0.1-0.3,0.2-0.5,0.3c-0.1,0.1-0.2,0.3-0.3,0.5
			c-0.1,0.2-0.1,0.4-0.1,0.6c0,0.2,0,0.4,0.1,0.6c0.1,0.2,0.2,0.3,0.3,0.5c0.1,0.1,0.3,0.2,0.5,0.3c0.2,0.1,0.4,0.1,0.6,0.1
			c0.2,0,0.4,0,0.6-0.1c0.2-0.1,0.3-0.2,0.5-0.3c0.1-0.1,0.2-0.3,0.3-0.5c0.1-0.2,0.1-0.4,0.1-0.6C210,3.4,209.9,3.2,209.9,3z
			 M209.2,3.6c-0.1,0.1-0.2,0.2-0.3,0.2l0.4,0.8h-0.4l-0.4-0.7h-0.4v0.7h-0.3V2.6h0.8c0.1,0,0.2,0,0.2,0c0.1,0,0.1,0.1,0.2,0.1
			c0.1,0,0.1,0.1,0.1,0.2c0,0.1,0.1,0.2,0.1,0.3C209.3,3.4,209.3,3.5,209.2,3.6z M208.9,3c-0.1,0-0.1-0.1-0.2-0.1h-0.5v0.5h0.5
			c0.1,0,0.2,0,0.2-0.1c0.1,0,0.1-0.1,0.1-0.2C209,3.1,209,3.1,208.9,3z"/>
	</g>
	<g>
		<path class="st0" d="M232.2,16c-0.3,0.7-0.7,1.3-1.3,1.8c-0.5,0.5-1.2,0.8-2,1.1c-0.8,0.2-1.6,0.4-2.5,0.4h-7.9V1.7h8
			c1.7,0,3,0.4,4,1.2c1,0.8,1.5,1.9,1.5,3.4c0,0.7-0.2,1.4-0.5,2s-0.8,1-1.4,1.4c0.7,0.3,1.3,0.8,1.7,1.4s0.7,1.4,0.7,2.4
			C232.7,14.5,232.5,15.3,232.2,16z M228.1,5.4c-0.3-0.3-0.9-0.4-1.6-0.4H222v3.3h4.6c0.7,0,1.2-0.2,1.5-0.5
			c0.3-0.3,0.4-0.7,0.4-1.2C228.6,6.1,228.4,5.7,228.1,5.4z M226.6,11.4H222v4.5h4.6c0.8,0,1.5-0.2,1.9-0.6c0.4-0.4,0.6-1,0.6-1.7
			C229.1,12.1,228.3,11.4,226.6,11.4z"/>
		<path class="st0" d="M249.4,9.9c-0.3,0.7-0.8,1.3-1.3,1.8c-0.6,0.5-1.2,0.8-2,1c-0.8,0.2-1.6,0.3-2.5,0.3h-3.9v6.2h-3.5V1.7h7.6
			c0.8,0,1.6,0.1,2.3,0.3c0.7,0.2,1.4,0.6,1.9,1s1,1,1.3,1.7c0.3,0.7,0.5,1.5,0.5,2.4C249.9,8.3,249.8,9.1,249.4,9.9z M245.6,5.7
			c-0.5-0.4-1.1-0.5-1.9-0.5h-4v4.4h4.1c1.7,0,2.5-0.7,2.5-2.2C246.3,6.6,246.1,6,245.6,5.7z"/>
		<path class="st0" d="M266.1,19.2v-6.4c0-0.2,0-0.5,0-0.9c0-0.4,0-0.7,0-1.1s0-0.7,0-1.1c0-0.3,0-0.6,0-0.7
			c-0.1,0.3-0.3,0.8-0.5,1.3c-0.2,0.5-0.5,1.1-0.7,1.6l-3.6,7.8l-3.5-7.8c-0.2-0.5-0.5-1-0.7-1.6c-0.2-0.5-0.4-1-0.5-1.3
			c0,0.2,0,0.4,0,0.7c0,0.3,0,0.7,0,1.1s0,0.8,0,1.1c0,0.4,0,0.7,0,0.9v6.4h-3.4V1.7h3.4l3.6,7.9c0.1,0.2,0.2,0.5,0.3,0.8
			c0.1,0.3,0.2,0.5,0.3,0.8c0.1,0.3,0.2,0.5,0.3,0.7c0.1,0.2,0.2,0.4,0.2,0.6c0.1-0.3,0.3-0.8,0.5-1.3s0.4-1.1,0.7-1.6l3.5-7.9h3.4
			v17.5H266.1z"/>
		<path class="st0" d="M293.7,16.2c-0.3,0.7-0.7,1.3-1.2,1.8s-1.3,0.9-2.1,1.1s-1.9,0.4-3.1,0.4c-1.5,0-2.8-0.3-4-0.8
			c-1.2-0.6-2.1-1.3-2.8-2.3L283,14c0.6,0.7,1.3,1.2,2.1,1.5c0.8,0.3,1.6,0.5,2.4,0.5c1,0,1.8-0.2,2.3-0.4c0.5-0.3,0.7-0.8,0.7-1.4
			c0-0.3-0.1-0.5-0.1-0.7c-0.1-0.2-0.3-0.4-0.6-0.6c-0.3-0.2-0.7-0.4-1.2-0.5c-0.5-0.2-1.2-0.3-2-0.5c-0.8-0.2-1.5-0.4-2.2-0.6
			c-0.7-0.2-1.3-0.6-1.7-0.9c-0.5-0.4-0.9-0.9-1.1-1.4c-0.3-0.6-0.4-1.3-0.4-2.2c0-0.8,0.2-1.5,0.5-2.1s0.8-1.2,1.3-1.6
			c0.6-0.4,1.2-0.8,2-1c0.8-0.2,1.6-0.3,2.4-0.3c1.4,0,2.6,0.2,3.6,0.7c1,0.5,2,1.2,2.8,2l-2.5,2.5c-0.6-0.6-1.2-1-1.8-1.3
			c-0.6-0.3-1.4-0.5-2.2-0.5c-0.5,0-0.9,0-1.2,0.1c-0.3,0.1-0.6,0.2-0.8,0.4s-0.3,0.3-0.4,0.5c-0.1,0.2-0.1,0.4-0.1,0.6
			c0,0.3,0.1,0.5,0.2,0.7c0.1,0.2,0.3,0.4,0.6,0.5c0.3,0.1,0.6,0.3,1.1,0.4c0.4,0.1,1,0.3,1.7,0.4s1.4,0.4,2.1,0.6
			c0.7,0.2,1.3,0.5,1.9,0.9s1,0.9,1.4,1.5s0.5,1.4,0.5,2.3C294.1,14.7,294,15.5,293.7,16.2z"/>
		<path class="st0" d="M304.8,19.2v-0.9c-0.3,0.3-0.7,0.6-1.2,0.8s-1.1,0.3-1.8,0.3c-1.7,0-2.9-0.5-3.7-1.6
			c-0.8-1.1-1.2-2.5-1.2-4.4V6.1h3.5v7.1c0,0.6,0,1.1,0.1,1.5c0.1,0.4,0.2,0.7,0.4,0.9c0.2,0.2,0.4,0.4,0.7,0.5
			c0.3,0.1,0.6,0.2,0.9,0.2c0.7,0,1.3-0.2,1.7-0.6s0.6-1.2,0.6-2.3V6.1h3.5v13.1H304.8z"/>
		<path class="st0" d="M314.8,4.4C314.4,4.8,314,5,313.4,5c-0.5,0-1-0.2-1.4-0.6c-0.4-0.4-0.6-0.9-0.6-1.4c0-0.5,0.2-1,0.6-1.4
			c0.4-0.4,0.9-0.6,1.4-0.6c0.5,0,1,0.2,1.4,0.6c0.4,0.4,0.6,0.9,0.6,1.4C315.4,3.6,315.2,4,314.8,4.4z M311.7,19.2V6.1h3.5v13.1
			H311.7z"/>
		<path class="st0" d="M326,18.7c-0.3,0.2-0.7,0.4-1.1,0.6c-0.5,0.2-1,0.2-1.5,0.2c-0.5,0-1-0.1-1.5-0.3c-0.4-0.2-0.8-0.5-1.1-0.8
			c-0.3-0.3-0.5-0.8-0.7-1.2c-0.2-0.5-0.3-1-0.3-1.6V9.3h-2.2V6.1h2.2V2.7l3.5-1.7v5.1h3.1v3.2h-3.1v5.3c0,0.6,0.1,1.1,0.3,1.3
			s0.5,0.3,0.9,0.3c0.3,0,0.6-0.1,0.9-0.2c0.3-0.2,0.6-0.4,1.1-0.8L326,18.7z"/>
		<path class="st0" d="M339.8,13.3c0,0.2,0,0.3,0,0.5h-7.8c0,0.4,0.1,0.8,0.3,1.1s0.4,0.6,0.6,0.8c0.2,0.2,0.5,0.3,0.8,0.4
			c0.3,0.1,0.6,0.1,0.9,0.1c0.5,0,0.9-0.1,1.3-0.2c0.4-0.2,0.7-0.4,0.9-0.7l2.4,2c-0.5,0.7-1.2,1.2-2.1,1.6s-1.7,0.5-2.6,0.5
			c-0.9,0-1.8-0.2-2.6-0.5c-0.8-0.3-1.4-0.8-1.9-1.4s-0.9-1.3-1.2-2.1c-0.3-0.8-0.4-1.8-0.4-2.8c0-1,0.1-1.9,0.4-2.8
			c0.3-0.8,0.7-1.6,1.2-2.2s1.1-1.1,1.8-1.4c0.7-0.3,1.5-0.5,2.3-0.5c0.9,0,1.6,0.2,2.3,0.5c0.7,0.4,1.3,0.8,1.7,1.5
			c0.5,0.6,0.8,1.4,1.1,2.2c0.2,0.8,0.4,1.7,0.4,2.6C339.8,12.9,339.8,13.1,339.8,13.3z M336.3,10.3c-0.1-0.3-0.2-0.5-0.4-0.7
			c-0.2-0.2-0.4-0.4-0.7-0.5c-0.3-0.1-0.6-0.2-1-0.2c-0.6,0-1.1,0.2-1.5,0.7s-0.6,1-0.6,1.7h4.5C336.4,10.9,336.4,10.6,336.3,10.3z"
			/>
	</g>
</g>
</svg>
