<?xml version="1.0" encoding="utf-8"?>
<!-- Generator: Adobe Illustrator 20.1.0, SVG Export Plug-In . SVG Version: 6.00 Build 0)  -->
<svg version="1.1" id="Layer_1" xmlns="http://www.w3.org/2000/svg" xmlns:xlink="http://www.w3.org/1999/xlink" x="0px" y="0px"
	 viewBox="0 0 208 12" style="enable-background:new 0 0 208 12;" xml:space="preserve">
<style type="text/css">
	.st0{fill:#FFFFFF;}
</style>
<g>
	<g>
		<path class="st0" d="M81.5,9.5c-0.2,0.5-0.5,1-0.8,1.4c-0.4,0.4-0.8,0.7-1.4,0.9c-0.6,0.2-1.2,0.3-2,0.3c-0.7,0-1.3-0.1-1.8-0.3
			c-0.5-0.2-1-0.4-1.3-0.7c-0.4-0.3-0.7-0.7-0.9-1.2c-0.2-0.5-0.4-1-0.6-1.5l2.9-0.8c0.2,0.6,0.4,1.1,0.6,1.4
			c0.3,0.3,0.6,0.5,1.1,0.5c0.5,0,0.8-0.1,1.1-0.4c0.2-0.3,0.3-0.7,0.3-1.2V1.4h3v6.3C81.8,8.3,81.7,9,81.5,9.5z"/>
		<path class="st0" d="M92,11.1c-0.7,0.6-1.6,0.9-3,0.9h-5.1V1.4H89c1.3,0,2.3,0.2,2.8,0.7c0.6,0.5,0.9,1.2,0.9,2
			c0,0.6-0.1,1-0.4,1.3c-0.2,0.3-0.5,0.6-0.9,0.8c0.5,0.2,0.9,0.5,1.1,0.9c0.3,0.4,0.4,0.9,0.4,1.5C92.9,9.6,92.6,10.5,92,11.1z
			 M89.6,3.9c-0.1-0.2-0.4-0.2-0.7-0.2h-2.2v1.7h2.2c0.3,0,0.6-0.1,0.7-0.2c0.1-0.1,0.2-0.4,0.2-0.6C89.8,4.3,89.8,4.1,89.6,3.9z
			 M89.8,7.8c-0.2-0.2-0.4-0.3-0.8-0.3h-2.3v2.1H89c0.4,0,0.6-0.1,0.8-0.3c0.2-0.2,0.3-0.4,0.3-0.8C90.1,8.3,90,8,89.8,7.8z"/>
		<path class="st0" d="M103.6,9c-0.2,0.7-0.6,1.3-1,1.7c-0.4,0.5-1,0.8-1.6,1.1c-0.6,0.2-1.3,0.4-2,0.4c-0.7,0-1.4-0.1-2-0.4
			c-0.6-0.2-1.1-0.6-1.5-1c-0.4-0.5-0.8-1-1-1.7c-0.2-0.7-0.4-1.5-0.4-2.3c0-0.9,0.1-1.7,0.4-2.3c0.2-0.7,0.6-1.3,1-1.7
			c0.4-0.5,1-0.8,1.6-1.1c0.6-0.2,1.3-0.4,2-0.4c0.7,0,1.4,0.1,2,0.4c0.6,0.2,1.1,0.6,1.5,1c0.4,0.5,0.8,1,1,1.7
			c0.2,0.7,0.4,1.5,0.4,2.3C104,7.5,103.8,8.3,103.6,9z M100.4,4.5C100.1,4,99.6,3.8,99,3.8c-0.6,0-1.1,0.2-1.4,0.7
			c-0.3,0.5-0.5,1.2-0.5,2.2c0,1,0.2,1.7,0.5,2.2c0.3,0.5,0.8,0.7,1.4,0.7c0.6,0,1-0.2,1.4-0.7c0.3-0.5,0.5-1.2,0.5-2.2
			C100.9,5.7,100.8,5,100.4,4.5z"/>
		<path class="st0" d="M113.5,10.3c-0.2,0.4-0.5,0.8-0.9,1.1c-0.4,0.3-0.8,0.5-1.4,0.6c-0.5,0.1-1.1,0.2-1.8,0.2
			c-0.9,0-1.7-0.1-2.5-0.4c-0.8-0.2-1.4-0.6-2-0.9l1.4-2.3c0.2,0.1,0.4,0.3,0.7,0.4c0.3,0.1,0.5,0.2,0.8,0.3
			c0.3,0.1,0.6,0.2,0.8,0.2c0.3,0.1,0.5,0.1,0.8,0.1c0.5,0,0.9-0.1,1.1-0.2c0.2-0.1,0.3-0.3,0.3-0.5c0-0.1,0-0.2-0.1-0.3
			c-0.1-0.1-0.2-0.2-0.3-0.2c-0.1-0.1-0.3-0.2-0.6-0.2c-0.2-0.1-0.5-0.1-0.9-0.2c-0.6-0.1-1.2-0.3-1.7-0.5c-0.5-0.2-0.9-0.4-1.2-0.6
			c-0.3-0.3-0.5-0.6-0.7-0.9c-0.2-0.4-0.2-0.8-0.2-1.3c0-0.5,0.1-0.9,0.3-1.4c0.2-0.4,0.5-0.8,0.8-1.1c0.4-0.3,0.8-0.5,1.3-0.7
			c0.5-0.2,1.1-0.2,1.7-0.2c0.9,0,1.7,0.1,2.4,0.3c0.7,0.2,1.3,0.5,1.8,0.9l-1.4,2.3c-0.5-0.3-0.9-0.6-1.4-0.7
			c-0.5-0.2-1-0.3-1.5-0.3c-0.4,0-0.7,0.1-0.9,0.2c-0.1,0.1-0.2,0.3-0.2,0.5c0,0.1,0,0.2,0.1,0.3c0.1,0.1,0.1,0.1,0.3,0.2
			c0.1,0.1,0.3,0.1,0.5,0.2c0.2,0.1,0.5,0.1,0.8,0.2c0.7,0.2,1.2,0.3,1.7,0.5c0.5,0.2,0.9,0.4,1.2,0.7c0.3,0.3,0.5,0.6,0.7,0.9
			c0.1,0.4,0.2,0.8,0.2,1.3C113.8,9.3,113.7,9.8,113.5,10.3z"/>
		<path class="st0" d="M123.5,10.3c-0.2,0.4-0.5,0.8-0.9,1.1c-0.4,0.3-0.8,0.5-1.4,0.6c-0.5,0.1-1.1,0.2-1.8,0.2
			c-0.9,0-1.7-0.1-2.5-0.4c-0.8-0.2-1.4-0.6-2-0.9l1.4-2.3c0.2,0.1,0.4,0.3,0.7,0.4c0.3,0.1,0.5,0.2,0.8,0.3
			c0.3,0.1,0.6,0.2,0.8,0.2c0.3,0.1,0.5,0.1,0.8,0.1c0.5,0,0.9-0.1,1.1-0.2c0.2-0.1,0.3-0.3,0.3-0.5c0-0.1,0-0.2-0.1-0.3
			c-0.1-0.1-0.1-0.2-0.3-0.2c-0.1-0.1-0.3-0.2-0.5-0.2c-0.2-0.1-0.5-0.1-0.9-0.2c-0.6-0.1-1.2-0.3-1.7-0.5c-0.5-0.2-0.9-0.4-1.2-0.6
			c-0.3-0.3-0.5-0.6-0.7-0.9c-0.2-0.4-0.2-0.8-0.2-1.3c0-0.5,0.1-0.9,0.3-1.4c0.2-0.4,0.5-0.8,0.8-1.1c0.4-0.3,0.8-0.5,1.3-0.7
			c0.5-0.2,1.1-0.2,1.7-0.2c0.9,0,1.7,0.1,2.4,0.3c0.7,0.2,1.3,0.5,1.9,0.9l-1.4,2.3c-0.5-0.3-0.9-0.6-1.4-0.7
			c-0.5-0.2-1-0.3-1.5-0.3c-0.4,0-0.7,0.1-0.9,0.2c-0.1,0.1-0.2,0.3-0.2,0.5c0,0.1,0,0.2,0.1,0.3c0.1,0.1,0.1,0.1,0.3,0.2
			c0.1,0.1,0.3,0.1,0.5,0.2c0.2,0.1,0.5,0.1,0.8,0.2c0.7,0.2,1.2,0.3,1.7,0.5c0.5,0.2,0.9,0.4,1.2,0.7c0.3,0.3,0.5,0.6,0.7,0.9
			c0.1,0.4,0.2,0.8,0.2,1.3C123.9,9.3,123.8,9.8,123.5,10.3z"/>
	</g>
	<g>
		<g>
			<path class="st0" d="M6.1,11.9L4.3,8.4H3.2v3.5H0.3V1.4H5c0.6,0,1.2,0.1,1.7,0.2C7.2,1.7,7.6,1.9,8,2.2c0.4,0.3,0.6,0.6,0.8,1.1
				c0.2,0.4,0.3,1,0.3,1.6c0,0.8-0.2,1.4-0.5,1.9C8.3,7.3,7.8,7.6,7.2,7.9l2.1,4H6.1z M5.9,4.1c-0.2-0.2-0.5-0.3-1-0.3H3.2v2.3h1.7
				c0.5,0,0.8-0.1,1-0.3c0.2-0.2,0.3-0.5,0.3-0.9C6.2,4.6,6.1,4.3,5.9,4.1z"/>
		</g>
		<g>
			<path class="st0" d="M11.1,11.9V1.4h8v2.4h-5.2v1.4H17v2.4h-3.1v1.8h5.3v2.4H11.1z"/>
		</g>
		<g>
			<path class="st0" d="M29.8,9.1c-0.2,0.7-0.6,1.2-1.1,1.6c-0.5,0.4-1.1,0.7-1.8,0.9c-0.7,0.2-1.5,0.3-2.5,0.3h-3.4V1.4h3.7
				c0.8,0,1.6,0.1,2.2,0.3c0.7,0.2,1.2,0.5,1.7,0.9c0.5,0.4,0.8,0.9,1.1,1.6c0.3,0.7,0.4,1.5,0.4,2.5C30.1,7.6,30,8.4,29.8,9.1z
				 M27,5.4c-0.1-0.4-0.2-0.6-0.4-0.9c-0.2-0.2-0.4-0.4-0.7-0.5c-0.3-0.1-0.7-0.2-1.1-0.2H24v5.5h0.6c0.4,0,0.8,0,1.2-0.1
				c0.3-0.1,0.6-0.3,0.8-0.5C26.8,8.6,26.9,8.3,27,8c0.1-0.4,0.1-0.8,0.1-1.3C27.2,6.2,27.1,5.7,27,5.4z"/>
		</g>
		<g>
			<path class="st0" d="M42.5,11.9V7.8h-3.3v4.1h-3V1.4h3v3.8h3.3V1.4h3v10.5H42.5z"/>
		</g>
		<g>
			<path class="st0" d="M54.4,11.9l-0.6-1.8h-3.2l-0.6,1.8H47l3.8-10.5h2.9l3.8,10.5H54.4z M52.9,7.1c-0.1-0.3-0.2-0.6-0.2-0.9
				c-0.1-0.3-0.1-0.5-0.2-0.7c-0.1-0.2-0.1-0.4-0.1-0.5c0-0.2-0.1-0.3-0.1-0.5c0,0.2-0.1,0.4-0.1,0.5c0,0.2-0.1,0.4-0.1,0.6
				c-0.1,0.2-0.1,0.4-0.2,0.7c-0.1,0.2-0.2,0.5-0.2,0.9l-0.2,0.7h1.7L52.9,7.1z"/>
		</g>
		<g>
			<path class="st0" d="M63,3.9v8h-2.9v-8h-2.9V1.4H66v2.5H63z"/>
		</g>
	</g>
	<g>
		<path class="st0" d="M69.4,2.9c-0.1,0.1-0.1,0.2-0.2,0.3c-0.1,0.1-0.2,0.2-0.3,0.2c-0.1,0.1-0.3,0.1-0.4,0.1c-0.2,0-0.3,0-0.4-0.1
			c-0.1-0.1-0.2-0.1-0.3-0.2c-0.1-0.1-0.2-0.2-0.2-0.3c-0.1-0.1-0.1-0.3-0.1-0.4c0-0.1,0-0.3,0.1-0.4c0.1-0.1,0.1-0.2,0.2-0.3
			c0.1-0.1,0.2-0.2,0.3-0.2c0.1-0.1,0.3-0.1,0.4-0.1c0.1,0,0.3,0,0.4,0.1c0.1,0.1,0.2,0.1,0.3,0.2c0.1,0.1,0.2,0.2,0.2,0.3
			c0.1,0.1,0.1,0.3,0.1,0.4C69.5,2.6,69.4,2.7,69.4,2.9z M69.2,2.1c0-0.1-0.1-0.2-0.2-0.3c-0.1-0.1-0.2-0.1-0.3-0.2
			c-0.1,0-0.2-0.1-0.3-0.1c-0.1,0-0.2,0-0.4,0.1c-0.1,0-0.2,0.1-0.3,0.2c-0.1,0.1-0.1,0.2-0.2,0.3c0,0.1-0.1,0.2-0.1,0.3
			s0,0.2,0.1,0.3c0,0.1,0.1,0.2,0.2,0.3c0.1,0.1,0.2,0.1,0.3,0.2c0.1,0,0.2,0.1,0.4,0.1c0.1,0,0.2,0,0.3-0.1c0.1,0,0.2-0.1,0.3-0.2
			c0.1-0.1,0.1-0.2,0.2-0.3c0-0.1,0.1-0.2,0.1-0.3S69.3,2.2,69.2,2.1z M68.8,2.4c0,0.1-0.1,0.1-0.2,0.1L68.9,3h-0.2l-0.2-0.4h-0.2V3
			H68V1.9h0.5c0.1,0,0.1,0,0.1,0c0,0,0.1,0,0.1,0.1c0,0,0.1,0.1,0.1,0.1c0,0,0,0.1,0,0.2C68.9,2.3,68.9,2.4,68.8,2.4z M68.6,2.1
			c0,0-0.1,0-0.1,0h-0.3v0.3h0.3c0.1,0,0.1,0,0.1,0c0,0,0.1-0.1,0.1-0.1C68.7,2.2,68.7,2.1,68.6,2.1z"/>
	</g>
	<g>
		<path class="st0" d="M127.9,2.9c-0.1,0.1-0.1,0.2-0.2,0.3c-0.1,0.1-0.2,0.2-0.3,0.2c-0.1,0.1-0.3,0.1-0.4,0.1
			c-0.2,0-0.3,0-0.4-0.1c-0.1-0.1-0.2-0.1-0.3-0.2C126,3.1,126,3,125.9,2.9c-0.1-0.1-0.1-0.3-0.1-0.4c0-0.1,0-0.3,0.1-0.4
			c0.1-0.1,0.1-0.2,0.2-0.3c0.1-0.1,0.2-0.2,0.3-0.2c0.1-0.1,0.3-0.1,0.4-0.1c0.1,0,0.3,0,0.4,0.1c0.1,0.1,0.2,0.1,0.3,0.2
			c0.1,0.1,0.2,0.2,0.2,0.3c0.1,0.1,0.1,0.3,0.1,0.4C127.9,2.6,127.9,2.7,127.9,2.9z M127.7,2.1c0-0.1-0.1-0.2-0.2-0.3
			c-0.1-0.1-0.2-0.1-0.3-0.2c-0.1,0-0.2-0.1-0.3-0.1c-0.1,0-0.2,0-0.4,0.1c-0.1,0-0.2,0.1-0.3,0.2c-0.1,0.1-0.1,0.2-0.2,0.3
			c0,0.1-0.1,0.2-0.1,0.3s0,0.2,0.1,0.3c0,0.1,0.1,0.2,0.2,0.3c0.1,0.1,0.2,0.1,0.3,0.2c0.1,0,0.2,0.1,0.4,0.1c0.1,0,0.2,0,0.3-0.1
			c0.1,0,0.2-0.1,0.3-0.2c0.1-0.1,0.1-0.2,0.2-0.3c0-0.1,0.1-0.2,0.1-0.3S127.7,2.2,127.7,2.1z M127.3,2.4c0,0.1-0.1,0.1-0.2,0.1
			l0.2,0.5h-0.2l-0.2-0.4h-0.2V3h-0.2V1.9h0.5c0.1,0,0.1,0,0.1,0c0,0,0.1,0,0.1,0.1c0,0,0.1,0.1,0.1,0.1c0,0,0,0.1,0,0.2
			C127.4,2.3,127.3,2.4,127.3,2.4z M127.1,2.1c0,0-0.1,0-0.1,0h-0.3v0.3h0.3c0.1,0,0.1,0,0.1,0c0,0,0.1-0.1,0.1-0.1
			C127.2,2.2,127.1,2.1,127.1,2.1z"/>
	</g>
	<g>
		<path class="st0" d="M141.3,10c-0.2,0.4-0.4,0.8-0.8,1.1c-0.3,0.3-0.7,0.5-1.2,0.7c-0.5,0.1-1,0.2-1.5,0.2H133V1.3h4.9
			c1,0,1.9,0.2,2.5,0.7c0.6,0.5,0.9,1.2,0.9,2.1c0,0.5-0.1,0.9-0.3,1.2c-0.2,0.4-0.5,0.6-0.8,0.8c0.4,0.2,0.8,0.5,1.1,0.9
			c0.3,0.4,0.4,0.9,0.4,1.5C141.6,9,141.5,9.5,141.3,10z M138.7,3.5c-0.2-0.2-0.5-0.3-1-0.3H135v2h2.8c0.4,0,0.8-0.1,0.9-0.3
			c0.2-0.2,0.3-0.4,0.3-0.7C139,3.9,138.9,3.7,138.7,3.5z M137.9,7.1H135v2.7h2.8c0.5,0,0.9-0.1,1.1-0.4c0.2-0.2,0.4-0.6,0.4-1
			C139.4,7.6,138.9,7.1,137.9,7.1z"/>
		<path class="st0" d="M151.7,6.2c-0.2,0.4-0.5,0.8-0.8,1.1c-0.3,0.3-0.8,0.5-1.2,0.6c-0.5,0.1-1,0.2-1.5,0.2h-2.3v3.8h-2.1V1.3h4.6
			c0.5,0,1,0.1,1.4,0.2c0.4,0.1,0.8,0.3,1.2,0.6c0.3,0.3,0.6,0.6,0.8,1.1c0.2,0.4,0.3,0.9,0.3,1.5C152,5.3,151.9,5.8,151.7,6.2z
			 M149.4,3.7c-0.3-0.2-0.7-0.3-1.1-0.3h-2.5v2.7h2.5c1,0,1.5-0.5,1.5-1.4C149.8,4.2,149.7,3.9,149.4,3.7z"/>
		<path class="st0" d="M161.9,11.9V8c0-0.1,0-0.3,0-0.5c0-0.2,0-0.5,0-0.7s0-0.5,0-0.7c0-0.2,0-0.4,0-0.5c-0.1,0.2-0.2,0.5-0.3,0.8
			c-0.1,0.3-0.3,0.7-0.4,1l-2.2,4.7l-2.1-4.7c-0.1-0.3-0.3-0.6-0.4-1c-0.1-0.3-0.2-0.6-0.3-0.8c0,0.1,0,0.3,0,0.5c0,0.2,0,0.4,0,0.7
			s0,0.5,0,0.7c0,0.2,0,0.4,0,0.5v3.9H154V1.3h2l2.2,4.8c0.1,0.2,0.1,0.3,0.2,0.5c0.1,0.2,0.1,0.3,0.2,0.5c0.1,0.2,0.1,0.3,0.2,0.5
			c0.1,0.1,0.1,0.3,0.1,0.3c0.1-0.2,0.2-0.5,0.3-0.8s0.3-0.7,0.4-1l2.1-4.8h2.1v10.6H161.9z"/>
		<path class="st0" d="M178.6,10.1c-0.2,0.4-0.4,0.8-0.8,1.1s-0.8,0.5-1.3,0.7c-0.5,0.2-1.1,0.2-1.9,0.2c-0.9,0-1.7-0.2-2.4-0.5
			c-0.7-0.3-1.3-0.8-1.7-1.4l1.5-1.4c0.4,0.4,0.8,0.7,1.3,0.9c0.5,0.2,0.9,0.3,1.5,0.3c0.6,0,1.1-0.1,1.4-0.3
			c0.3-0.2,0.4-0.5,0.4-0.9c0-0.2,0-0.3-0.1-0.4s-0.2-0.2-0.3-0.4s-0.4-0.2-0.7-0.3c-0.3-0.1-0.7-0.2-1.2-0.3
			c-0.5-0.1-0.9-0.2-1.3-0.4c-0.4-0.2-0.8-0.3-1.1-0.6c-0.3-0.2-0.5-0.5-0.7-0.9c-0.2-0.4-0.2-0.8-0.2-1.3c0-0.5,0.1-0.9,0.3-1.3
			c0.2-0.4,0.5-0.7,0.8-1c0.3-0.3,0.7-0.5,1.2-0.6c0.5-0.1,1-0.2,1.5-0.2c0.8,0,1.6,0.1,2.2,0.4c0.6,0.3,1.2,0.7,1.7,1.2l-1.5,1.5
			c-0.3-0.4-0.7-0.6-1.1-0.8c-0.4-0.2-0.8-0.3-1.3-0.3c-0.3,0-0.5,0-0.7,0.1c-0.2,0.1-0.3,0.1-0.5,0.2c-0.1,0.1-0.2,0.2-0.3,0.3
			c-0.1,0.1-0.1,0.2-0.1,0.3c0,0.2,0,0.3,0.1,0.4c0.1,0.1,0.2,0.2,0.3,0.3c0.2,0.1,0.4,0.2,0.7,0.3c0.3,0.1,0.6,0.2,1,0.3
			c0.4,0.1,0.8,0.2,1.3,0.4c0.4,0.1,0.8,0.3,1.1,0.6s0.6,0.6,0.8,0.9c0.2,0.4,0.3,0.8,0.3,1.4C178.9,9.2,178.8,9.7,178.6,10.1z"/>
		<path class="st0" d="M185.4,11.9v-0.5c-0.2,0.2-0.4,0.4-0.8,0.5c-0.3,0.1-0.7,0.2-1.1,0.2c-1,0-1.8-0.3-2.2-1s-0.7-1.5-0.7-2.7
			V3.9h2.1v4.3c0,0.4,0,0.7,0.1,0.9c0.1,0.2,0.1,0.4,0.3,0.6c0.1,0.1,0.3,0.2,0.4,0.3c0.2,0.1,0.4,0.1,0.6,0.1c0.4,0,0.8-0.1,1-0.4
			s0.4-0.7,0.4-1.4V3.9h2.1v8H185.4z"/>
		<path class="st0" d="M191.5,2.9c-0.2,0.2-0.5,0.4-0.8,0.4s-0.6-0.1-0.8-0.4s-0.4-0.5-0.4-0.8s0.1-0.6,0.4-0.8s0.5-0.4,0.8-0.4
			s0.6,0.1,0.8,0.4c0.2,0.2,0.4,0.5,0.4,0.8S191.7,2.7,191.5,2.9z M189.6,11.9v-8h2.1v8H189.6z"/>
		<path class="st0" d="M198.2,11.6c-0.2,0.1-0.4,0.3-0.7,0.3c-0.3,0.1-0.6,0.1-0.9,0.1c-0.3,0-0.6-0.1-0.9-0.2
			c-0.3-0.1-0.5-0.3-0.7-0.5c-0.2-0.2-0.3-0.5-0.4-0.8c-0.1-0.3-0.2-0.6-0.2-1V5.9h-1.3v-2h1.3v-2l2.1-1v3.1h1.9v2h-1.9v3.2
			c0,0.4,0.1,0.6,0.2,0.8c0.1,0.1,0.3,0.2,0.6,0.2c0.2,0,0.4,0,0.5-0.1c0.2-0.1,0.4-0.2,0.6-0.5L198.2,11.6z"/>
		<path class="st0" d="M206.6,8.3c0,0.1,0,0.2,0,0.3h-4.8c0,0.3,0.1,0.5,0.2,0.7c0.1,0.2,0.2,0.3,0.4,0.5c0.2,0.1,0.3,0.2,0.5,0.3
			c0.2,0.1,0.4,0.1,0.6,0.1c0.3,0,0.6,0,0.8-0.2c0.2-0.1,0.4-0.2,0.6-0.4l1.5,1.2c-0.3,0.4-0.7,0.7-1.3,1s-1,0.3-1.6,0.3
			c-0.6,0-1.1-0.1-1.6-0.3c-0.5-0.2-0.9-0.5-1.2-0.8c-0.3-0.4-0.6-0.8-0.8-1.3s-0.3-1.1-0.3-1.7c0-0.6,0.1-1.2,0.3-1.7
			s0.4-1,0.8-1.3c0.3-0.4,0.7-0.7,1.1-0.9c0.4-0.2,0.9-0.3,1.4-0.3c0.5,0,1,0.1,1.4,0.3c0.4,0.2,0.8,0.5,1.1,0.9
			c0.3,0.4,0.5,0.8,0.7,1.3c0.2,0.5,0.2,1,0.2,1.6C206.7,8.1,206.6,8.2,206.6,8.3z M204.5,6.5c-0.1-0.2-0.1-0.3-0.3-0.5
			c-0.1-0.1-0.3-0.2-0.4-0.3c-0.2-0.1-0.4-0.1-0.6-0.1c-0.4,0-0.7,0.1-0.9,0.4c-0.2,0.3-0.4,0.6-0.4,1h2.7
			C204.6,6.8,204.6,6.7,204.5,6.5z"/>
	</g>
</g>
</svg>
